<?xml version="1.0" encoding="UTF-8"?><svg id="Layer_1" xmlns="http://www.w3.org/2000/svg" viewBox="0 0 790.73 675.25"><defs><style>.cls-1{fill:#fff;stroke:#0000fe;stroke-miterlimit:10;stroke-width:.91px;}</style></defs><polyline class="cls-1" points="0 675.25 0 0 790.73 0"/><line class="cls-1" y1="649.28" x2="790.73" y2="649.28"/><line class="cls-1" y1="623.31" x2="790.73" y2="623.31"/><line class="cls-1" y1="597.34" x2="790.73" y2="597.34"/><line class="cls-1" y1="571.37" x2="790.73" y2="571.37"/><line class="cls-1" y1="545.4" x2="790.73" y2="545.4"/><line class="cls-1" y1="519.42" x2="790.73" y2="519.42"/><line class="cls-1" y1="493.45" x2="790.73" y2="493.45"/><line class="cls-1" y1="467.48" x2="790.73" y2="467.48"/><line class="cls-1" y1="441.51" x2="790.73" y2="441.51"/><line class="cls-1" y1="415.54" x2="790.73" y2="415.54"/><line class="cls-1" y1="389.57" x2="790.73" y2="389.57"/><line class="cls-1" y1="363.6" x2="790.73" y2="363.6"/><line class="cls-1" y1="337.63" x2="790.73" y2="337.63"/><line class="cls-1" y1="311.65" x2="790.73" y2="311.65"/><line class="cls-1" y1="285.68" x2="790.73" y2="285.68"/><line class="cls-1" y1="259.71" x2="790.73" y2="259.71"/><line class="cls-1" y1="233.74" x2="790.73" y2="233.74"/><line class="cls-1" y1="207.77" x2="790.73" y2="207.77"/><line class="cls-1" y1="181.8" x2="790.73" y2="181.8"/><line class="cls-1" y1="155.83" x2="790.73" y2="155.83"/><line class="cls-1" y1="129.86" x2="790.73" y2="129.86"/><line class="cls-1" y1="103.88" x2="790.73" y2="103.88"/><line class="cls-1" y1="77.91" x2="790.73" y2="77.91"/><line class="cls-1" y1="51.94" x2="790.73" y2="51.94"/><line class="cls-1" y1="25.97" x2="790.73" y2="25.97"/><line class="cls-1" x1="765.23" x2="765.23" y2="675.25"/><line class="cls-1" x1="739.72" x2="739.72" y2="675.25"/><line class="cls-1" x1="714.21" x2="714.21" y2="675.25"/><line class="cls-1" x1="688.7" x2="688.7" y2="675.25"/><line class="cls-1" x1="663.2" x2="663.2" y2="675.25"/><line class="cls-1" x1="637.69" x2="637.69" y2="675.25"/><line class="cls-1" x1="612.18" x2="612.18" y2="675.25"/><line class="cls-1" x1="586.67" x2="586.67" y2="675.25"/><line class="cls-1" x1="561.17" x2="561.17" y2="675.25"/><line class="cls-1" x1="535.66" x2="535.66" y2="675.25"/><line class="cls-1" x1="510.15" x2="510.15" y2="675.25"/><line class="cls-1" x1="484.64" x2="484.64" y2="675.25"/><line class="cls-1" x1="459.14" x2="459.14" y2="675.25"/><line class="cls-1" x1="433.63" x2="433.63" y2="675.25"/><line class="cls-1" x1="408.12" x2="408.12" y2="675.25"/><line class="cls-1" x1="382.61" x2="382.61" y2="675.25"/><line class="cls-1" x1="357.11" x2="357.11" y2="675.25"/><line class="cls-1" x1="331.6" x2="331.6" y2="675.25"/><line class="cls-1" x1="306.09" x2="306.09" y2="675.25"/><line class="cls-1" x1="280.58" x2="280.58" y2="675.25"/><line class="cls-1" x1="255.08" x2="255.08" y2="675.25"/><line class="cls-1" x1="229.57" x2="229.57" y2="675.25"/><line class="cls-1" x1="204.06" x2="204.06" y2="675.25"/><line class="cls-1" x1="178.55" x2="178.55" y2="675.25"/><line class="cls-1" x1="153.05" x2="153.05" y2="675.25"/><line class="cls-1" x1="127.54" x2="127.54" y2="675.25"/><line class="cls-1" x1="102.03" x2="102.03" y2="675.25"/><line class="cls-1" x1="76.52" x2="76.52" y2="675.25"/><line class="cls-1" x1="51.02" x2="51.02" y2="675.25"/><line class="cls-1" x1="25.51" x2="25.51" y2="675.25"/></svg>