<?xml version="1.0" encoding="utf-8"?>
<!-- Generator: Adobe Illustrator 28.0.0, SVG Export Plug-In . SVG Version: 6.00 Build 0)  -->
<svg version="1.1" id="Layer_1" xmlns="http://www.w3.org/2000/svg" xmlns:xlink="http://www.w3.org/1999/xlink" x="0px" y="0px"
	 viewBox="0 0 71.2 60" style="enable-background:new 0 0 71.2 60;" xml:space="preserve">
<style type="text/css">
	.st0{fill:#0000FE;}
	.st1{fill:#F9FF00;}
</style>
<path class="st0" d="M70.8,8.9c0.4,2.4,0.6,39.1,0.2,48.8h-2.1V13.4C59.3,13,4.7,13.2,2.3,13.6v44H0.4C0,55.2-0.2,18.5,0.2,8.9h2.1
	V11c10.1,0.4,64,0.2,66.5-0.2V8.9C68.8,8.9,70.8,8.9,70.8,8.9z"/>
<path class="st0" d="M68.8,57.6v1.9c-2.5,0.4-56.3,0.6-66.5,0.2v-2.1C2.3,57.6,68.8,57.6,68.8,57.6z"/>
<path class="st1" d="M68.8,13.4v44.2H2.3v-44C4.7,13.2,59.3,13,68.8,13.4z"/>
<path class="st1" d="M68.8,8.9v1.9c-2.5,0.4-56.3,0.6-66.5,0.2V8.9h2.2V6.6h2.2V4.4H9V2.2h22.2v2.2h2.2v2.2h2.2v1.9
	c0.1,0.1,0.1,0.1,0.2,0.2C35.9,8.8,36,8.9,36,8.9C47,8.9,57.9,8.9,68.8,8.9L68.8,8.9z"/>
<path class="st0" d="M68.8,6.7v2.2c-10.9,0-21.9,0-32.8,0c-0.1,0-0.2,0-0.2-0.1c-0.1-0.1-0.1-0.1-0.2-0.2V6.7L68.8,6.7L68.8,6.7z"/>
<path class="st0" d="M35.6,4.4v2.2h-2.2V4.4C33.4,4.4,35.6,4.4,35.6,4.4z"/>
<path class="st0" d="M33.4,2.2v2.2h-2.2V2.2H33.4z"/>
<path class="st0" d="M31.1,0v2.2H9V0c3.6,0,7.3,0,10.9,0C23.6,0,27.3,0,31.1,0z"/>
<path class="st0" d="M9,2.2v2.2H6.8V2.2H9z"/>
<path class="st0" d="M6.8,4.4v2.2H4.6V4.4C4.6,4.4,6.8,4.4,6.8,4.4z"/>
<path class="st0" d="M4.6,6.7v2.2H2.3V6.6C2.3,6.6,4.6,6.6,4.6,6.7z"/>
</svg>
