<?xml version="1.0" encoding="utf-8"?>
<!-- Generator: Adobe Illustrator 28.0.0, SVG Export Plug-In . SVG Version: 6.00 Build 0)  -->
<svg version="1.1" id="Layer_1" xmlns="http://www.w3.org/2000/svg" xmlns:xlink="http://www.w3.org/1999/xlink" x="0px" y="0px"
	 viewBox="0 0 42.5 51.6" style="enable-background:new 0 0 42.5 51.6;" xml:space="preserve">
<style type="text/css">
	.st0{fill:#0000FE;}
	.st1{fill:#FFFFFF;}
</style>
<path class="st0" d="M40.6,49.7v1.8H2v-1.8h0v0L40.6,49.7L40.6,49.7C40.6,49.7,40.6,49.7,40.6,49.7z"/>
<path class="st0" d="M40.6,49.7L40.6,49.7L40.6,49.7L40.6,49.7L40.6,49.7z"/>
<path class="st0" d="M40.6,6.1L40.6,6.1L40.6,6.1L40.6,6.1L40.6,6.1z"/>
<path class="st0" d="M40.6,4.1v2.1h0v0C40,6.1,39.4,6,38.8,5.9c-0.1-0.6-0.2-1.2-0.2-1.8h0v0H40.6z"/>
<path class="st1" d="M40.6,6.2v1.8h-5.9V2.1h2v2c0.7,0,1.2,0.1,1.8,0.1c0.1,0.6,0.2,1.2,0.2,1.8C39.4,6,40,6.1,40.6,6.2z"/>
<path class="st1" d="M40.6,10v39.7H2.1c0-7.2,0-34.2,0-41.3c0-2.1,0-4.2,0-6.4h0v0h30.6V8h2V10L40.6,10L40.6,10z M36.6,39.9v-1.7H6
	v1.7H36.6z M36.6,19.1v-1.7H6v1.7H36.6z M34.6,26.1v-1.7H6v1.7H34.6z M32.7,33v-1.7H6V33H32.7z"/>
<path class="st0" d="M40.6,10h-5.9V7.9h0v0h5.9V6.2h0v0c0.6,0,1.2-0.1,1.9-0.1v43.6c-0.6,0-1.3,0.1-1.9,0.1v0h0
	C40.6,49.7,40.6,10,40.6,10z"/>
<path class="st0" d="M38.6,2.1c0,0.7-0.1,1.3-0.1,2h0v0c-0.5,0-1.1-0.1-1.8-0.1v-2h0v0C37.3,2.1,37.9,2.1,38.6,2.1z"/>
<path class="st0" d="M38.5,4.1L38.5,4.1L38.5,4.1L38.5,4.1L38.5,4.1z"/>
<path class="st0" d="M36.8,2L36.8,2L36.8,2L36.8,2L36.8,2z"/>
<path class="st0" d="M36.6,38.2v1.7H6v-1.7H36.6z"/>
<path class="st0" d="M36.6,17.4v1.7H6v-1.7H36.6z"/>
<path class="st0" d="M34.7,7.9L34.7,7.9L34.7,7.9L34.7,7.9L34.7,7.9z"/>
<path class="st0" d="M34.6,24.3v1.7H6v-1.7H34.6z"/>
<path class="st0" d="M32.7,31.3V33H6v-1.7C6,31.3,32.7,31.3,32.7,31.3z"/>
<path class="st0" d="M32.7,2H2.1c0-0.7,0-1.4,0-2h34.5c0.1,0.7,0.2,1.4,0.3,2h0v0h-2v5.9h0v0h-2V2z"/>
<path class="st0" d="M2.1,49.7L2.1,49.7L2.1,49.7L2.1,49.7L2.1,49.7z"/>
<path class="st0" d="M2.1,2L2.1,2L2.1,2L2.1,2z"/>
<path class="st0" d="M2.1,2.1L2.1,2.1L2.1,2.1L2.1,2.1z"/>
<path class="st0" d="M2,8.4c0,7.1,0,34.1,0,41.3h0v0c-0.7,0-1.4,0-2,0V2c0.7,0,1.4,0,2,0C2,4.2,2,6.3,2,8.4L2,8.4z"/>
</svg>
